HIERARCHY
ROOT root
{
  OFFSET 0 90.5966 0
  CHANNELS 6 Xposition Yposition Zposition Zrotation Xrotation Yrotation
  JOINT torso_1
  {
    OFFSET 0 4.93189 -1.1181
    CHANNELS 6 Xposition Yposition Zposition Zrotation Xrotation Yrotation
    JOINT torso_2
    {
      OFFSET 0 5.45428 1.04046
      CHANNELS 6 Xposition Yposition Zposition Zrotation Xrotation Yrotation
      JOINT torso_3
      {
        OFFSET -9.96389e-18 5.81666 0.111686
        CHANNELS 6 Xposition Yposition Zposition Zrotation Xrotation Yrotation
        JOINT torso_4
        {
          OFFSET -1.07264e-17 6.3178 -0.430704
          CHANNELS 6 Xposition Yposition Zposition Zrotation Xrotation Yrotation
          JOINT torso_5
          {
            OFFSET -1.91593e-17 7.38567 -1.4624
            CHANNELS 6 Xposition Yposition Zposition Zrotation Xrotation Yrotation
            JOINT torso_6
            {
              OFFSET -2.45986e-17 9.22288 -0.888062
              CHANNELS 6 Xposition Yposition Zposition Zrotation Xrotation Yrotation
              JOINT torso_7
              {
                OFFSET -2.82008e-17 10.2464 1.53133
                CHANNELS 6 Xposition Yposition Zposition Zrotation Xrotation Yrotation
                JOINT neck_1
                {
                  OFFSET -1.25459e-17 4.64811 0.694664
                  CHANNELS 6 Xposition Yposition Zposition Zrotation Xrotation Yrotation
                  JOINT neck_2
                  {
                    OFFSET -1.75924e-17 4.68175 0.4096
                    CHANNELS 6 Xposition Yposition Zposition Zrotation Xrotation Yrotation
                    JOINT head
                    {
                      OFFSET -1.9515e-17 4.6908 0.74295
                      CHANNELS 6 Xposition Yposition Zposition Zrotation Xrotation Yrotation
                      End Site
                      {
                        OFFSET 0 0.1 0
                      }
                    }
                  }
                }
                JOINT l_shoulder
                {
                  OFFSET 1.19736 -7.38744 7.31601
                  CHANNELS 6 Xposition Yposition Zposition Zrotation Xrotation Yrotation
                  JOINT l_up_arm
                  {
                    OFFSET 12.5803 3.15559 -3.17425
                    CHANNELS 6 Xposition Yposition Zposition Zrotation Xrotation Yrotation
                    JOINT l_low_arm
                    {
                      OFFSET 28.3639 0.0580795 0.133078
                      CHANNELS 6 Xposition Yposition Zposition Zrotation Xrotation Yrotation
                      JOINT l_hand
                      {
                        OFFSET 23.5335 0.0481878 0.110415
                        CHANNELS 6 Xposition Yposition Zposition Zrotation Xrotation Yrotation
                        End Site
                        {
                          OFFSET 0.1 0 0
                        }
                      }
                    }
                  }
                }
                JOINT r_shoulder
                {
                  OFFSET -1.19736 -7.38743 7.31591
                  CHANNELS 6 Xposition Yposition Zposition Zrotation Xrotation Yrotation
                  JOINT r_up_arm
                  {
                    OFFSET -12.5803 3.15559 -3.17425
                    CHANNELS 6 Xposition Yposition Zposition Zrotation Xrotation Yrotation
                    JOINT r_low_arm
                    {
                      OFFSET -28.3639 0.0580795 0.133078
                      CHANNELS 6 Xposition Yposition Zposition Zrotation Xrotation Yrotation
                      JOINT r_hand
                      {
                        OFFSET -23.5335 0.0481876 0.110415
                        CHANNELS 6 Xposition Yposition Zposition Zrotation Xrotation Yrotation
                        End Site
                        {
                          OFFSET -0.1 0 0
                        }
                      }
                    }
                  }
                }
              }
            }
          }
        }
      }
    }
  }
  JOINT l_up_leg
  {
    OFFSET 8.96978 -4.08401 1.97395
    CHANNELS 6 Xposition Yposition Zposition Zrotation Xrotation Yrotation
    JOINT l_low_leg
    {
      OFFSET -0.827718 -37.6515 -0.63625
      CHANNELS 6 Xposition Yposition Zposition Zrotation Xrotation Yrotation
      JOINT l_foot
      {
        OFFSET -2.25899 -39.2341 -5.87393
        CHANNELS 6 Xposition Yposition Zposition Zrotation Xrotation Yrotation
        JOINT l_toes
        {
          OFFSET 0.756579 -9.59872 12.1348
          CHANNELS 6 Xposition Yposition Zposition Zrotation Xrotation Yrotation
          End Site
          {
            OFFSET 0 0 0.1
          }
        }
      }
    }
  }
  JOINT r_up_leg
  {
    OFFSET -8.96978 -4.08401 1.97395
    CHANNELS 6 Xposition Yposition Zposition Zrotation Xrotation Yrotation
    JOINT r_low_leg
    {
      OFFSET 0.827718 -37.6515 -0.63625
      CHANNELS 6 Xposition Yposition Zposition Zrotation Xrotation Yrotation
      JOINT r_foot
      {
        OFFSET 2.25899 -39.2341 -5.87393
        CHANNELS 6 Xposition Yposition Zposition Zrotation Xrotation Yrotation
        JOINT r_toes
        {
          OFFSET -0.756579 -9.59872 12.1348
          CHANNELS 6 Xposition Yposition Zposition Zrotation Xrotation Yrotation
          End Site
          {
            OFFSET 0 0 0.1
          }
        }
      }
    }
  }
}
MOTION
Frames: 5
Frame Time: 0.020000
0 90.5966 0 -0 0 -0 0 4.93189 -1.1181 -0 0 -0 0 5.45428 1.04046 -0 0 -0 -9.96389e-18 5.81666 0.111686 -0 0 -0 -1.07264e-17 6.3178 -0.430704 -0 0 -0 -1.91593e-17 7.38567 -1.4624 -0 0 -0 -2.45986e-17 9.22288 -0.888062 -0 0 -0 -2.82008e-17 10.2464 1.53133 -0 0 -0 -1.25459e-17 4.64811 0.694664 -0 0 -0 -1.75924e-17 4.68175 0.4096 -0 0 -0 -1.9515e-17 4.6908 0.74295 -0 0 -0 1.19736 -7.38744 7.31601 -0 0 -0 12.5803 3.15559 -3.17425 -0 0 -0 28.3639 0.0580795 0.133078 -0 0 -0 23.5335 0.0481878 0.110415 -0 0 -0 -1.19736 -7.38743 7.31591 -0 0 -0 -12.5803 3.15559 -3.17425 -0 0 -0 -28.3639 0.0580795 0.133078 -0 0 -0 -23.5335 0.0481876 0.110415 -0 0 -0 8.96978 -4.08401 1.97395 -0 0 -0 -0.827718 -37.6515 -0.63625 -0 0 -0 -2.25899 -39.2341 -5.87393 -0 0 -0 0.756579 -9.59872 12.1348 -0 0 -0 -8.96978 -4.08401 1.97395 -0 0 -0 0.827718 -37.6515 -0.63625 -0 0 -0 2.25899 -39.2341 -5.87393 -0 0 -0 -0.756579 -9.59872 12.1348 -0 0 -0 
-6.79858 91.4359 -1.71873 -4.18349 4.86939 4.70571 0 4.93189 -1.1181 -0.333829 1.98801 0.275788 0 5.45428 1.04046 -0.288251 1.99318 0.193355 -9.96389e-18 5.81666 0.111686 -0.158493 2.36812 0.196042 -1.07264e-17 6.3178 -0.430704 -0.044809 2.89622 0.173346 -1.91593e-17 7.38567 -1.4624 0.0984717 2.7708 0.118111 -2.45986e-17 9.22288 -0.888062 0.228594 2.89224 0.0393019 -2.82008e-17 10.2464 1.53133 -0.000590895 0.10603 -0.00335087 -1.25459e-17 4.64811 0.694664 0.186017 6.49853 1.63368 -1.75924e-17 4.68175 0.4096 0.738275 -3.19131 0.451338 -1.9515e-17 4.6908 0.74295 0.239588 -3.69236 -2.88253 1.19736 -7.38744 7.31601 3.18165 -0.226826 1.69437 12.5803 3.15559 -3.17425 -69.8451 -4.44884 -2.72672 28.3639 0.0580795 0.133078 2.58639 -0.27098 -12.5577 23.5335 0.0481878 0.110415 1.40117 -3.78283 -0.350833 -1.19736 -7.38743 7.31591 -2.85854 1.12121 -1.51731 -12.5803 3.15559 -3.17425 72.9323 6.41959 5.89304 -28.3639 0.0580795 0.133078 -3.70077 -0.570505 18.1139 -23.5335 0.0481876 0.110415 -2.01192 5.86549 0.812604 8.96978 -4.08401 1.97395 2.49847 -7.0772 -18.5493 -0.827718 -37.6515 -0.63625 -0.287935 1.075 -0.0160628 -2.25899 -39.2341 -5.87393 0.793665 0.912282 15.0067 0.756579 -9.59872 12.1348 -3.4729e-16 -8.07544e-16 2.48299e-17 -8.96978 -4.08401 1.97395 1.3113 -11.9144 19.1455 0.827718 -37.6515 -0.63625 2.96886 11.0107 -0.0933833 2.25899 -39.2341 -5.87393 1.3598 1.01981 -15.4396 -0.756579 -9.59872 12.1348 -9.9334e-16 -5.46676e-16 -1.27223e-14 
-6.86559 91.4376 -1.71484 -3.96274 4.57612 5.13449 0 4.93189 -1.1181 -0.37646 1.91149 0.290782 0 5.45428 1.04046 -0.324095 1.95013 0.195117 -9.96389e-18 5.81666 0.111686 -0.183653 2.35757 0.1973 -1.07264e-17 6.3178 -0.430704 -0.0606875 2.94199 0.171523 -1.91593e-17 7.38567 -1.4624 0.0915045 2.83259 0.118421 -2.45986e-17 9.22288 -0.888062 0.23176 2.96996 0.0383284 -2.82008e-17 10.2464 1.53133 -0.000758737 0.103488 -0.00343675 -1.25459e-17 4.64811 0.694664 0.157417 6.69767 1.54908 -1.75924e-17 4.68175 0.4096 0.786802 -3.30028 0.407295 -1.9515e-17 4.6908 0.74295 0.249562 -3.82443 -3.11225 1.19736 -7.38744 7.31601 3.80448 -0.418263 1.99878 12.5803 3.15559 -3.17425 -68.5949 -5.30318 -1.93809 28.3639 0.0580795 0.133078 2.58983 -0.27173 -12.5747 23.5335 0.0481878 0.110415 1.34358 -4.19722 -0.0419721 -1.19736 -7.38743 7.31591 -3.24946 0.893669 -1.72887 -12.5803 3.15559 -3.17425 72.1175 4.72843 5.092 -28.3639 0.0580795 0.133078 -3.73516 -0.581618 18.2878 -23.5335 0.0481876 0.110415 -2.10095 6.36751 0.628539 8.96978 -4.08401 1.97395 2.28384 -6.78338 -18.9509 -0.827718 -37.6515 -0.63625 -0.265094 0.98969 -0.0149853 -2.25899 -39.2341 -5.87393 0.662059 1.12221 15.0114 0.756579 -9.59872 12.1348 4.461e-16 -7.82751e-16 3.64341e-20 -8.96978 -4.08401 1.97395 1.06016 -10.6131 19.6236 0.827718 -37.6515 -0.63625 2.69005 9.99321 -0.0603305 2.25899 -39.2341 -5.87393 1.42413 0.918835 -15.4583 -0.756579 -9.59872 12.1348 -9.93923e-16 -5.46658e-16 -1.27222e-14 
-6.92323 91.396 -1.67784 -3.64829 4.35333 5.46529 0 4.93189 -1.1181 -0.419752 1.81772 0.315133 0 5.45428 1.04046 -0.36419 1.8939 0.208201 -9.96389e-18 5.81666 0.111686 -0.21517 2.34155 0.210511 -1.07264e-17 6.3178 -0.430704 -0.0857103 2.99519 0.18142 -1.91593e-17 7.38567 -1.4624 0.076668 2.9112 0.13223 -2.45986e-17 9.22288 -0.888062 0.232505 3.06562 0.0521335 -2.82008e-17 10.2464 1.53133 -0.000913366 0.10122 -0.00353379 -1.25459e-17 4.64811 0.694664 0.12686 6.84919 1.40401 -1.75924e-17 4.68175 0.4096 0.824118 -3.42248 0.335099 -1.9515e-17 4.6908 0.74295 0.207608 -3.96232 -3.29249 1.19736 -7.38744 7.31601 4.38786 -0.582542 2.27377 12.5803 3.15559 -3.17425 -67.2355 -5.78221 -1.11735 28.3639 0.0580795 0.133078 2.59133 -0.272058 -12.5821 23.5335 0.0481878 0.110415 1.22111 -4.91935 0.176891 -1.19736 -7.38743 7.31591 -3.70075 0.647234 -1.94713 -12.5803 3.15559 -3.17425 71.1474 3.08155 4.25709 -28.3639 0.0580795 0.133078 -3.77693 -0.595269 18.4992 -23.5335 0.0481876 0.110415 -2.17015 7.00276 0.522431 8.96978 -4.08401 1.97395 1.99008 -6.49461 -19.3927 -0.827718 -37.6515 -0.63625 -0.235991 0.880996 -0.0135633 -2.25899 -39.2341 -5.87393 0.539178 1.2077 15.0192 0.756579 -9.59872 12.1348 -3.46707e-16 -8.07526e-16 2.48116e-17 -8.96978 -4.08401 1.97395 0.653108 -9.51536 20.3075 0.827718 -37.6515 -0.63625 2.22551 8.28627 -0.0163345 2.25899 -39.2341 -5.87393 1.69317 1.38565 -15.4827 -0.756579 -9.59872 12.1348 -9.93923e-16 -5.46658e-16 -1.27222e-14 
-6.96645 91.2785 -1.67028 -3.26433 4.25988 5.70379 0 4.93189 -1.1181 -0.472797 1.73942 0.347138 0 5.45428 1.04046 -0.414744 1.84239 0.229253 -9.96389e-18 5.81666 0.111686 -0.257555 2.32141 0.231065 -1.07264e-17 6.3178 -0.430704 -0.121994 3.02762 0.198213 -1.91593e-17 7.38567 -1.4624 0.0533391 2.96219 0.15508 -2.45986e-17 9.22288 -0.888062 0.228267 3.12878 0.0770737 -2.82008e-17 10.2464 1.53133 -0.0010172 0.0993478 -0.00348227 -1.25459e-17 4.64811 0.694664 0.0921156 6.94173 1.24882 -1.75924e-17 4.68175 0.4096 0.833469 -3.51192 0.25734 -1.9515e-17 4.6908 0.74295 0.170295 -4.11798 -3.44914 1.19736 -7.38744 7.31601 4.9819 -0.668124 2.52879 12.5803 3.15559 -3.17425 -65.8503 -5.84356 -0.222267 28.3639 0.0580795 0.133078 2.60569 -0.275195 -12.6529 23.5335 0.0481878 0.110415 1.11692 -5.86682 0.389196 -1.19736 -7.38743 7.31591 -4.20903 0.437124 -2.1624 -12.5803 3.15559 -3.17425 70.0371 1.55812 3.3421 -28.3639 0.0580795 0.133078 -3.83998 -0.616199 18.8188 -23.5335 0.0481876 0.110415 -2.18027 7.32789 0.506039 8.96978 -4.08401 1.97395 1.60905 -6.40586 -19.7393 -0.827718 -37.6515 -0.63625 -0.256066 0.955971 -0.0145501 -2.25899 -39.2341 -5.87393 0.537038 1.00465 15.0264 0.756579 -9.59872 12.1348 4.91132e-17 -7.95157e-16 1.24423e-17 -8.96978 -4.08401 1.97395 0.191953 -8.73646 20.9061 0.827718 -37.6515 -0.63625 1.84837 6.89165 0.00913056 2.25899 -39.2341 -5.87393 2.04718 2.25899 -15.5147 -0.756579 -9.59872 12.1348 -9.93923e-16 -5.46658e-16 -1.27222e-14 
